<svg width="404" height="118" viewBox="0 0 404 118" fill="none" xmlns="http://www.w3.org/2000/svg">
<path d="M61.0734 64.0258C61.917 63.6879 62.62 63.519 63.1823 63.519C64.0821 63.519 64.757 63.8568 65.2069 64.5326C65.6568 65.2083 65.8817 66.0811 65.8817 67.151C65.8817 68.8404 65.4599 70.2763 64.6164 71.4588C63.8291 72.6414 62.4513 73.7113 60.483 74.6686C57.165 76.2453 52.8628 77.5123 47.5766 78.4696C42.2903 79.3706 37.0883 79.821 31.9708 79.821C24.8849 79.821 18.9519 79.0327 14.1717 77.456C9.39159 75.8229 5.82054 73.5987 3.45858 70.7831C1.15286 67.9675 0 64.786 0 61.2384C0 56.3956 1.54652 52.2849 4.63956 48.9062C7.78883 45.4712 12.4003 42.9936 18.4739 41.4732C15.1559 40.5159 12.5971 38.8265 10.7975 36.4052C9.05417 33.9838 8.18249 31.2808 8.18249 28.2963C8.18249 24.2419 9.44783 20.6662 11.9785 17.5691C14.5654 14.4157 18.024 11.9943 22.3542 10.3049C26.6845 8.61561 31.4365 7.77094 36.6103 7.77094C43.5837 7.77094 48.8138 9.29134 52.3005 12.3321C55.7872 15.3166 57.5305 19.2021 57.5305 23.9885C57.5305 27.3109 56.9119 30.0138 55.6747 32.0974C54.4937 34.1246 52.7785 35.1381 50.529 35.1381C48.9544 35.1381 47.7171 34.8003 46.8173 34.1246C45.9176 33.3925 45.4677 32.3226 45.4677 30.9148C45.4677 29.9575 45.6083 28.9158 45.8894 27.7895C46.1706 25.9313 46.3112 24.6643 46.3112 23.9885C46.3112 21.9613 45.552 20.3283 44.0336 19.0895C42.5152 17.7943 39.9845 17.1467 36.4416 17.1467C31.6615 17.1467 27.8373 18.1603 24.9693 20.1875C22.1012 22.2147 20.6671 24.9458 20.6671 28.3808C20.6671 31.0274 21.7356 33.2236 23.8726 34.9692C26.0659 36.6586 29.6088 37.5877 34.5014 37.7566C35.7386 37.8129 36.6103 38.0945 37.1165 38.6013C37.6226 39.1081 37.8757 39.9528 37.8757 41.1353C37.8757 44.8518 36.1885 46.7382 32.8143 46.7946C28.1466 46.9072 24.2663 47.5548 21.1733 48.7373C18.1365 49.9198 15.9151 51.4402 14.5092 53.2985C13.1595 55.1005 12.4846 57.0432 12.4846 59.1267C12.4846 62.618 14.1155 65.2646 17.3773 67.0666C20.639 68.8122 25.8128 69.685 32.8987 69.685C37.5664 69.685 42.4871 69.1501 47.6609 68.0802C52.8909 66.9539 57.3618 65.6025 61.0734 64.0258Z" fill="#E78C22"/>
<path d="M113.966 60.5626C114.697 60.5626 115.259 60.9005 115.653 61.5762C116.103 62.252 116.328 63.1811 116.328 64.3636C116.328 66.6161 115.793 68.3617 114.725 69.6006C112.419 72.4161 109.889 74.8375 107.133 76.8647C104.377 78.8356 101.65 79.821 98.9504 79.821C94.6764 79.821 91.4146 77.3152 89.1652 72.3035C86.8032 75.288 84.7224 77.287 82.9229 78.3006C81.1795 79.3142 79.1269 79.821 76.7649 79.821C73.3344 79.821 70.4945 78.554 68.245 76.02C66.0517 73.4297 64.9551 70.0792 64.9551 65.9685C64.9551 61.4636 65.9111 57.2966 67.8232 53.4674C69.7353 49.582 72.3503 46.4285 75.6683 44.0072C79.0425 41.5295 82.8104 40.0654 86.9719 39.6149C88.0404 28.6905 90.065 19.371 93.0455 11.6564C96.0823 3.88547 100.047 0 104.94 0C107.358 0 109.354 1.09807 110.929 3.2942C112.56 5.49034 113.375 8.81269 113.375 13.2613C113.375 19.5681 111.829 26.9449 108.736 35.3916C105.643 43.8382 101.509 52.5101 96.3354 61.4073C96.5603 64.6733 97.0384 67.0103 97.7694 68.418C98.5568 69.8258 99.5409 70.5297 100.722 70.5297C102.24 70.5297 103.787 69.854 105.361 68.5025C106.936 67.151 109.045 64.8986 111.688 61.7452C112.363 60.9568 113.122 60.5626 113.966 60.5626ZM104.012 8.27774C102.943 8.27774 101.875 10.1923 100.806 14.0215C99.7377 17.7943 98.8098 22.7497 98.0225 28.8876C97.2914 35.0255 96.7572 41.445 96.4198 48.146C102.718 34.4061 105.868 23.3691 105.868 15.0351C105.868 12.8953 105.671 11.2341 105.277 10.0515C104.94 8.869 104.518 8.27774 104.012 8.27774ZM79.7173 71.2899C80.7859 71.2899 81.8544 70.8676 82.9229 70.0229C83.9914 69.1219 85.341 67.4889 86.9719 65.1238C86.4096 62.083 86.1284 58.6762 86.1284 54.9034C86.1284 53.5519 86.1846 51.3558 86.2971 48.315C83.204 49.2722 80.6171 51.3558 78.5364 54.5655C76.5118 57.7189 75.4996 61.2384 75.4996 65.1238C75.4996 69.2346 76.9055 71.2899 79.7173 71.2899Z" fill="#E78C22"/>
<path d="M126.505 79.821C123.974 79.821 121.894 78.6667 120.263 76.3579C118.688 73.9928 117.901 71.0647 117.901 67.5734C117.901 63.35 118.182 59.4927 118.744 56.0014C119.307 52.4538 120.235 48.7091 121.528 44.7674C122.09 43.078 122.878 41.8673 123.89 41.1353C124.902 40.4032 126.505 40.0372 128.698 40.0372C129.936 40.0372 130.779 40.2343 131.229 40.6285C131.735 41.0227 131.988 41.6139 131.988 42.4023C131.988 42.8528 131.679 44.3732 131.06 46.9635C130.498 49.047 130.048 50.9334 129.711 52.6228C128.586 58.5354 128.023 62.4772 128.023 64.4481C128.023 65.6306 128.164 66.4753 128.445 66.9821C128.726 67.4326 129.176 67.6578 129.795 67.6578C130.638 67.6578 131.679 66.8132 132.916 65.1238C134.21 63.4345 135.559 60.8723 136.965 57.4374C138.427 54.0024 139.833 49.779 141.183 44.7674C141.633 43.078 142.308 41.8673 143.207 41.1353C144.163 40.4032 145.569 40.0372 147.425 40.0372C148.719 40.0372 149.618 40.2062 150.125 40.544C150.631 40.8256 150.884 41.3887 150.884 42.2334C150.884 43.6411 150.181 47.4984 148.775 53.8053C147.2 61.0131 146.413 65.4617 146.413 67.151C146.413 68.2209 146.638 69.0656 147.088 69.685C147.538 70.2482 148.128 70.5297 148.859 70.5297C149.984 70.5297 151.306 69.854 152.824 68.5025C154.399 67.0947 156.479 64.8423 159.066 61.7452C159.741 60.9568 160.5 60.5626 161.344 60.5626C162.075 60.5626 162.637 60.9005 163.031 61.5762C163.481 62.252 163.706 63.1811 163.706 64.3636C163.706 66.6161 163.172 68.3617 162.103 69.6006C159.685 72.5851 157.07 75.0346 154.258 76.9492C151.502 78.8638 148.353 79.821 144.81 79.821C142.111 79.821 140.114 78.7793 138.821 76.6958C137.584 74.6123 136.965 71.6841 136.965 67.9112C136.009 71.7404 134.575 74.6967 132.663 76.7802C130.751 78.8074 128.698 79.821 126.505 79.821Z" fill="#E78C22"/>
<path d="M188.837 80.0744C181.357 80.0744 175.368 78.6667 170.869 75.8511C166.37 72.9792 164.12 68.6151 164.12 62.7588C164.12 59.6617 164.655 57.2966 165.723 55.6636C166.792 54.0305 168.366 53.214 170.447 53.214C171.965 53.214 173.203 53.6082 174.159 54.3966C175.115 55.1849 175.593 56.1985 175.593 57.4374C175.593 58.5636 175.508 59.549 175.34 60.3937C175.34 60.6189 175.283 61.0131 175.171 61.5762C175.115 62.1393 175.087 62.7306 175.087 63.35C175.087 65.884 176.352 67.7705 178.883 69.0093C181.47 70.2481 185.069 70.8676 189.68 70.8676C194.46 70.8676 198.2 70.0229 200.899 68.3336C203.599 66.5879 204.948 64.1665 204.948 61.0694C204.948 59.1549 204.33 57.5218 203.093 56.1704C201.855 54.7626 200.309 53.6082 198.453 52.7072C196.597 51.7499 193.982 50.5956 190.608 49.2441C186.278 47.5548 182.735 45.9499 179.979 44.4295C177.28 42.9091 174.946 40.8537 172.978 38.2634C171.066 35.6168 170.11 32.3507 170.11 28.4653C170.11 24.4109 171.178 20.807 173.315 17.6535C175.508 14.5001 178.63 12.0506 182.679 10.3049C186.784 8.55929 191.592 7.68647 197.103 7.68647C201.209 7.68647 204.977 8.30589 208.407 9.54474C211.838 10.7273 214.565 12.5574 216.59 15.0351C218.67 17.5128 219.711 20.5536 219.711 24.1575C219.711 27.7051 219.176 30.3799 218.108 32.1818C217.039 33.9838 215.465 34.8848 213.384 34.8848C211.922 34.8848 210.685 34.4343 209.672 33.5333C208.716 32.6323 208.238 31.5624 208.238 30.3235C208.238 29.2536 208.323 28.2682 208.491 27.3672C208.66 25.6779 208.744 24.608 208.744 24.1575C208.744 21.7924 207.592 19.9905 205.286 18.7516C202.98 17.5128 200.112 16.8933 196.682 16.8933C191.845 16.8933 188.134 17.7943 185.547 19.5963C183.016 21.3419 181.751 23.8196 181.751 27.0294C181.751 29.1692 182.397 30.9993 183.691 32.5197C185.041 34.0401 186.7 35.3071 188.668 36.3207C190.636 37.3343 193.392 38.545 196.935 39.9528C201.209 41.6984 204.639 43.2751 207.226 44.6829C209.813 46.0907 212.006 48.0052 213.806 50.4266C215.662 52.848 216.59 55.8325 216.59 59.3801C216.59 66.0248 214.059 71.1491 208.998 74.753C203.992 78.3006 197.272 80.0744 188.837 80.0744Z" fill="#E78C22"/>
<path d="M265.804 60.5626C266.536 60.5626 267.098 60.9005 267.492 61.5762C267.941 62.252 268.166 63.1811 268.166 64.3636C268.166 66.6161 267.632 68.3617 266.564 69.6006C264.145 72.5851 261.53 75.0346 258.719 76.9492C255.963 78.8638 252.814 79.821 249.271 79.821C246.29 79.821 243.872 78.7511 242.016 76.6113C238.811 78.6948 235.465 79.7647 231.978 79.821C231.247 90.6891 229.588 99.7552 227.001 107.019C224.414 114.34 220.618 118 215.613 118C212.576 118 210.327 116.902 208.864 114.706C207.402 112.51 206.671 109.469 206.671 105.583C206.671 100.065 207.937 93.6173 210.467 86.2405C212.998 78.9201 216.906 70.8394 222.193 61.9986C222.193 53.7771 222.136 48.0616 222.024 44.8518C221.968 43.2188 222.614 41.9236 223.964 40.9664C225.314 40.0091 227.001 39.5304 229.025 39.5304C230.206 39.5304 231.05 39.7838 231.556 40.2906C232.118 40.7411 232.428 41.6702 232.484 43.078C232.484 44.4858 232.512 45.5276 232.568 46.2033C234.368 43.9508 236.139 42.346 237.883 41.3887C239.626 40.3751 241.482 39.8683 243.45 39.8683C246.599 39.8683 249.158 41.1353 251.127 43.6693C253.151 46.2033 254.163 49.5256 254.163 53.6364C254.163 56.6209 253.685 59.5209 252.729 62.3364C251.773 65.152 250.452 67.7141 248.765 70.0229C249.946 70.3608 250.93 70.5297 251.717 70.5297C253.573 70.5297 255.344 69.854 257.031 68.5025C258.719 67.151 260.884 64.8986 263.527 61.7452C264.202 60.9568 264.961 60.5626 265.804 60.5626ZM232.4 71.7122C234.424 71.2617 236.28 70.1637 237.967 68.418C239.71 66.6161 241.088 64.4199 242.101 61.8296C243.113 59.183 243.619 56.4238 243.619 53.5519C243.619 51.8626 243.282 50.5956 242.607 49.7509C241.932 48.8499 241.032 48.3994 239.907 48.3994C237.883 48.3994 235.436 50.5392 232.568 54.8189C232.512 57.2966 232.484 60.9287 232.484 65.7151C232.484 68.3054 232.456 70.3045 232.4 71.7122ZM216.288 109.722C217.806 109.722 219.071 106.4 220.084 99.7552C221.096 93.1668 221.743 84.9454 222.024 75.0909C219.606 80.722 217.694 86.0997 216.288 91.224C214.882 96.3484 214.179 100.656 214.179 104.147C214.179 105.949 214.404 107.329 214.854 108.286C215.247 109.244 215.725 109.722 216.288 109.722Z" fill="#E78C22"/>
<path d="M280.182 79.821C276.696 79.821 273.912 78.554 271.831 76.02C269.75 73.486 268.71 70.1637 268.71 66.053C268.71 61.5481 269.75 57.2966 271.831 53.2985C273.912 49.2441 276.668 46.0062 280.098 43.5848C283.585 41.1071 287.268 39.8683 291.149 39.8683C292.386 39.8683 293.201 40.1217 293.595 40.6285C294.045 41.079 294.41 41.9236 294.692 43.1625C295.873 42.9372 297.11 42.8246 298.403 42.8246C301.159 42.8246 302.537 43.8101 302.537 45.781C302.537 46.9635 302.115 49.779 301.271 54.2276C299.978 60.7034 299.331 65.2083 299.331 67.7423C299.331 68.587 299.528 69.2627 299.922 69.7695C300.372 70.2763 300.934 70.5297 301.609 70.5297C302.677 70.5297 303.971 69.854 305.489 68.5025C307.008 67.0947 309.06 64.8423 311.647 61.7452C312.322 60.9568 313.081 60.5626 313.925 60.5626C314.656 60.5626 315.218 60.9005 315.612 61.5762C316.062 62.252 316.287 63.1811 316.287 64.3636C316.287 66.6161 315.752 68.3617 314.684 69.6006C312.378 72.4724 309.932 74.8938 307.345 76.8647C304.758 78.8356 302.255 79.821 299.837 79.821C297.981 79.821 296.266 79.2016 294.692 77.9628C293.173 76.6676 292.02 74.922 291.233 72.7258C288.309 77.456 284.625 79.821 280.182 79.821ZM283.219 71.2899C284.456 71.2899 285.637 70.5579 286.762 69.0938C287.887 67.6297 288.702 65.6869 289.209 63.2656L292.33 47.7237C289.968 47.78 287.774 48.681 285.75 50.4266C283.782 52.116 282.207 54.3684 281.026 57.184C279.845 59.9995 279.255 62.984 279.255 66.1374C279.255 67.8831 279.592 69.1782 280.267 70.0229C280.998 70.8676 281.982 71.2899 283.219 71.2899Z" fill="#E78C22"/>
<path d="M323.856 79.821C321.719 79.821 320.2 78.6948 319.3 76.4424C318.457 74.1899 318.035 70.586 318.035 65.6306C318.035 58.3102 319.075 51.3558 321.156 44.7674C321.662 43.1343 322.478 41.9518 323.603 41.2198C324.783 40.4314 326.414 40.0372 328.495 40.0372C329.62 40.0372 330.407 40.178 330.857 40.4596C331.307 40.7411 331.532 41.2761 331.532 42.0644C331.532 42.9654 331.11 44.9926 330.267 48.146C329.704 50.3985 329.254 52.3694 328.917 54.0587C328.579 55.748 328.298 57.8315 328.073 60.3092C329.929 55.4665 332.01 51.5247 334.316 48.4839C336.621 45.4431 338.871 43.2751 341.064 41.98C343.314 40.6848 345.366 40.0372 347.222 40.0372C350.878 40.0372 352.705 41.8673 352.705 45.5276C352.705 46.2596 352.452 48.0334 351.946 50.849C351.496 53.1014 351.271 54.5092 351.271 55.0723C351.271 57.0432 351.974 58.0286 353.38 58.0286C354.955 58.0286 356.979 56.7898 359.454 54.3121C360.185 53.5801 360.944 53.214 361.731 53.214C362.462 53.214 363.025 53.5519 363.418 54.2276C363.868 54.8471 364.093 55.6917 364.093 56.7616C364.093 58.8451 363.531 60.4782 362.406 61.6607C360.831 63.2937 358.976 64.7015 356.839 65.884C354.758 67.0103 352.536 67.5734 350.175 67.5734C347.194 67.5734 344.916 66.8132 343.342 65.2928C341.823 63.7724 341.064 61.717 341.064 59.1267C341.064 58.282 341.148 57.4374 341.317 56.5927C341.43 55.4665 341.486 54.7063 341.486 54.3121C341.486 53.4111 341.177 52.9606 340.558 52.9606C339.714 52.9606 338.59 53.9179 337.184 55.8325C335.834 57.6908 334.484 60.1685 333.135 63.2656C331.785 66.3627 330.688 69.6287 329.845 73.0637C329.226 75.7103 328.495 77.5123 327.652 78.4696C326.864 79.3706 325.599 79.821 323.856 79.821Z" fill="#E78C22"/>
<path d="M400.541 70.6142C402.847 71.0647 404 72.3317 404 74.4152C404 75.823 403.353 77.09 402.06 78.2162C400.823 79.2861 399.023 79.821 396.661 79.821C392.612 79.821 389.294 78.5822 386.707 76.1045C384.176 73.5705 382.911 70.2763 382.911 66.2219C382.911 64.0258 384.036 62.4491 386.285 61.4918C388.76 60.4219 390.531 59.2956 391.6 58.1131C392.668 56.8743 393.202 55.382 393.202 53.6364C393.202 52.6228 392.978 51.8626 392.528 51.3558C392.134 50.849 391.628 50.5956 391.009 50.5956C389.491 50.5956 387.804 51.6936 385.948 53.8898C384.148 56.0859 382.461 58.9296 380.887 62.4209C379.312 65.8559 378.075 69.4035 377.175 73.0637C376.556 75.7103 375.825 77.5123 374.982 78.4696C374.194 79.3706 372.929 79.821 371.186 79.821C369.442 79.821 368.149 79.2016 367.305 77.9628C366.518 76.6676 365.984 74.6967 365.703 72.0501C365.421 69.4035 365.281 65.518 365.281 60.3937C365.281 51.7218 366.152 42.6838 367.896 33.2799C369.695 23.8759 372.31 15.9924 375.741 9.62921C379.228 3.20974 383.389 0 388.225 0C390.812 0 392.893 1.12622 394.468 3.37867C396.099 5.5748 396.914 8.44667 396.914 11.9943C396.914 17.6817 395.255 23.5944 391.937 29.7323C388.619 35.8139 383.22 42.9372 375.741 51.1024C375.572 54.0305 375.488 57.0432 375.488 60.1403C378.187 53.1014 381.28 48.0052 384.767 44.8518C388.254 41.6421 391.515 40.0372 394.552 40.0372C397.364 40.0372 399.613 40.9945 401.301 42.9091C403.044 44.8237 403.916 47.1887 403.916 50.0043C403.916 53.1014 403.128 55.9451 401.554 58.5354C399.979 61.1257 397.28 63.4345 393.456 65.4617C393.793 67.151 394.468 68.3336 395.48 69.0093C396.549 69.6287 398.236 70.1637 400.541 70.6142ZM386.454 8.36221C385.442 8.36221 384.317 9.8263 383.08 12.7545C381.843 15.6263 380.633 19.54 379.452 24.4953C378.328 29.3944 377.4 34.744 376.669 40.544C380.155 36.4333 383.024 31.9566 385.273 27.1138C387.579 22.2711 388.732 17.8788 388.732 13.937C388.732 12.1351 388.535 10.7554 388.141 9.79814C387.747 8.84085 387.185 8.36221 386.454 8.36221Z" fill="#E78C22"/>
</svg>
